<svg version="1.1" id="Layer_1" xmlns="http://www.w3.org/2000/svg" xmlns:xlink="http://www.w3.org/1999/xlink" x="0px" y="0px"
	 width="100%" viewBox="0 0 512 512" enable-background="new 0 0 512 512" xml:space="preserve">
<path fill="#E3F2FF" opacity="1.000000" stroke="none" 
	d="
M257.000000,513.000000 
	C194.645767,513.000000 132.291550,513.000000 69.766968,512.714478 
	C66.315689,508.831085 61.941601,506.153168 61.944149,500.235962 
	C62.013958,338.134735 61.990814,176.033493 62.094425,13.932294 
	C62.095856,11.693090 63.231094,9.297696 64.351982,7.258138 
	C65.591881,5.002030 67.425148,3.072024 69.000000,1.000000 
	C131.354233,1.000000 193.708450,1.000000 256.531342,1.468657 
	C257.012512,60.908531 257.025024,119.879753 256.574646,178.945114 
	C245.364685,179.059662 234.613235,178.917923 223.873276,179.205322 
	C220.889999,179.285156 217.940796,180.637268 214.632812,181.530304 
	C211.755005,184.670761 208.709015,187.390091 206.762573,190.746979 
	C178.360443,239.730042 150.141754,288.819458 121.769173,337.819702 
	C118.191620,343.998199 118.460945,349.717255 121.948410,355.708893 
	C133.090195,374.851074 144.094025,394.073822 155.307480,413.173676 
	C156.679581,415.510681 159.001358,417.290100 161.120834,419.590424 
	C164.525375,420.592834 167.688095,421.954498 170.859436,421.974915 
	C197.597656,422.147034 224.337463,422.065521 251.076752,422.091553 
	C253.054520,422.093475 255.032059,422.338470 257.002991,422.909576 
	C256.997528,453.232452 256.998749,483.116241 257.000000,513.000000 
z"/>
<path fill="#C7E9FF" opacity="1.000000" stroke="none" 
	d="
M257.468658,513.000000 
	C256.998749,483.116241 256.997528,453.232452 257.024689,422.768341 
	C257.053101,422.187988 256.994049,421.909973 257.455017,422.006958 
	C286.557861,422.122314 315.200104,422.064728 343.841309,422.213623 
	C350.807770,422.249817 355.435272,419.170105 358.793945,413.321228 
	C369.977997,393.844940 381.321014,374.459686 392.434235,354.943359 
	C393.762268,352.611145 394.050964,349.687073 394.891113,346.635986 
	C393.844879,342.993286 393.208130,339.478424 391.538544,336.552979 
	C375.386871,308.252716 359.070282,280.046509 342.783417,251.823486 
	C330.568787,230.657074 318.327759,209.505936 306.100464,188.346832 
	C303.621124,184.056366 300.781982,180.140808 295.207214,180.006378 
	C282.458496,179.698898 269.707031,179.502869 256.998962,179.163269 
	C257.041229,179.064957 257.037506,178.850967 257.037506,178.850967 
	C257.025024,119.879753 257.012512,60.908531 257.000000,1.468657 
	C276.687561,1.000000 296.375122,1.000000 316.531342,1.468657 
	C317.000000,30.767824 316.997864,59.598331 317.001038,88.428841 
	C317.002350,100.178619 322.743225,105.995773 334.346222,105.998482 
	C373.509064,106.007622 412.671875,106.011147 451.910461,106.478973 
	C451.991119,237.813904 452.008179,368.686707 451.906647,499.559418 
	C451.904785,501.967285 450.801697,504.536957 449.649597,506.736298 
	C448.457642,509.011688 446.578522,510.927124 445.000000,513.000000 
	C382.645782,513.000000 320.291534,513.000000 257.468658,513.000000 
z"/>
<path fill="#000000" opacity="1.000000" stroke="none" 
	d="
M445.468658,513.000000 
	C446.578522,510.927124 448.457642,509.011688 449.649597,506.736298 
	C450.801697,504.536957 451.904785,501.967285 451.906647,499.559418 
	C452.008179,368.686707 451.991119,237.813904 451.984253,106.062752 
	C452.424316,100.404366 450.519012,96.796104 446.707916,93.942230 
	C428.877899,80.590744 411.112915,67.152504 393.287994,53.794189 
	C372.356873,38.108040 351.364075,22.504045 330.472290,6.765839 
	C328.384918,5.193366 326.811798,2.938276 325.000000,0.999998 
	C387.630951,1.000000 450.261932,1.000000 512.946411,1.000000 
	C512.946411,171.666672 512.946411,342.333344 512.946411,513.000000 
	C490.578461,513.000000 468.257904,513.000000 445.468658,513.000000 
z"/>
<path fill="#000000" opacity="1.000000" stroke="none" 
	d="
M68.531342,1.000000 
	C67.425148,3.072024 65.591881,5.002030 64.351982,7.258138 
	C63.231094,9.297696 62.095856,11.693090 62.094425,13.932294 
	C61.990814,176.033493 62.013958,338.134735 61.944149,500.235962 
	C61.941601,506.153168 66.315689,508.831085 69.298309,512.714478 
	C46.348644,513.000000 23.697289,513.000000 1.049935,513.000000 
	C1.053936,342.333313 1.053936,171.666656 1.053936,1.000000 
	C23.426144,1.000000 45.744411,1.000000 68.531342,1.000000 
z"/>
<path fill="#84D0FF" opacity="1.000000" stroke="none" 
	d="
M324.555847,0.999998 
	C326.811798,2.938276 328.384918,5.193366 330.472290,6.765839 
	C351.364075,22.504045 372.356873,38.108040 393.287994,53.794189 
	C411.112915,67.152504 428.877899,80.590744 446.707916,93.942230 
	C450.519012,96.796104 452.424316,100.404366 451.908508,105.600601 
	C412.671875,106.011147 373.509064,106.007622 334.346222,105.998482 
	C322.743225,105.995773 317.002350,100.178619 317.001038,88.428841 
	C316.997864,59.598331 317.000000,30.767824 317.000000,1.468657 
	C319.370575,1.000000 321.741119,1.000000 324.555847,0.999998 
z"/>
<path fill="#65D6A9" opacity="1.000000" stroke="none" 
	d="
M160.883011,419.327942 
	C159.001358,417.290100 156.679581,415.510681 155.307480,413.173676 
	C144.094025,394.073822 133.090195,374.851074 121.948410,355.708893 
	C118.460945,349.717255 118.191620,343.998199 121.769173,337.819702 
	C150.141754,288.819458 178.360443,239.730042 206.762573,190.746979 
	C208.709015,187.390091 211.755005,184.670761 214.881073,181.822418 
	C216.737518,184.139496 218.009079,186.285248 219.266541,188.439255 
	C231.836243,209.971008 244.403625,231.504120 256.963501,253.330856 
	C256.939331,253.820297 256.923340,254.015732 256.654449,254.409088 
	C238.676254,285.370026 220.950928,316.133057 203.045563,347.206970 
	C198.872177,354.417908 194.908340,361.335205 190.879654,368.214569 
	C180.896576,385.261627 170.883835,402.291290 160.883011,419.327942 
z"/>
<path fill="#6AA9FF" opacity="1.000000" stroke="none" 
	d="
M161.120834,419.590424 
	C170.883835,402.291290 180.896576,385.261627 190.879654,368.214569 
	C194.908340,361.335205 198.872177,354.417908 203.490295,347.257263 
	C221.776962,347.062042 239.438828,347.127472 257.076355,347.648865 
	C257.032684,372.706543 257.013336,397.308258 256.994019,421.909973 
	C256.994049,421.909973 257.053101,422.187988 257.031403,422.329224 
	C255.032059,422.338470 253.054520,422.093475 251.076752,422.091553 
	C224.337463,422.065521 197.597656,422.147034 170.859436,421.974915 
	C167.688095,421.954498 164.525375,420.592834 161.120834,419.590424 
z"/>
<path fill="#FDD845" opacity="1.000000" stroke="none" 
	d="
M256.971680,253.036850 
	C244.403625,231.504120 231.836243,209.971008 219.266541,188.439255 
	C218.009079,186.285248 216.737518,184.139496 215.224243,181.697800 
	C217.940796,180.637268 220.889999,179.285156 223.873276,179.205322 
	C234.613235,178.917923 245.364685,179.059662 256.574646,178.945114 
	C257.037506,178.850967 257.041229,179.064957 257.015442,179.613708 
	C256.983704,204.453918 256.977692,228.745392 256.971680,253.036850 
z"/>
<path fill="#FABE2D" opacity="1.000000" stroke="none" 
	d="
M256.963501,253.330856 
	C256.977692,228.745392 256.983704,204.453918 256.973206,179.712006 
	C269.707031,179.502869 282.458496,179.698898 295.207214,180.006378 
	C300.781982,180.140808 303.621124,184.056366 306.100464,188.346832 
	C318.327759,209.505936 330.568787,230.657074 342.783417,251.823486 
	C359.070282,280.046509 375.386871,308.252716 391.538544,336.552979 
	C393.208130,339.478424 393.844879,342.993286 394.437622,346.635498 
	C366.058380,346.983887 338.202362,346.931396 310.238953,346.531891 
	C300.173584,328.886566 290.259644,311.562714 280.243408,294.298248 
	C272.577423,281.084778 264.782227,267.946289 257.039520,254.626495 
	C257.034546,254.478516 256.907318,254.211151 256.907318,254.211151 
	C256.923340,254.015732 256.939331,253.820297 256.963501,253.330856 
z"/>
<path fill="#2682FF" opacity="1.000000" stroke="none" 
	d="
M310.346344,346.878967 
	C338.202362,346.931396 366.058380,346.983887 394.367889,347.036865 
	C394.050964,349.687073 393.762268,352.611145 392.434235,354.943359 
	C381.321014,374.459686 369.977997,393.844940 358.793945,413.321228 
	C355.435272,419.170105 350.807770,422.249817 343.841309,422.213623 
	C315.200104,422.064728 286.557861,422.122314 257.455017,422.006958 
	C257.013336,397.308258 257.032684,372.706543 257.075256,347.582886 
	C257.098511,347.060913 256.991486,346.984131 257.460205,347.008881 
	C275.401398,346.982056 292.873871,346.930511 310.346344,346.878967 
z"/>
<path fill="#E2F2FF" opacity="1.000000" stroke="none" 
	d="
M256.654449,254.409088 
	C256.907318,254.211151 257.034546,254.478516 257.028259,255.113068 
	C257.011780,286.159790 257.001617,316.571960 256.991455,346.984131 
	C256.991486,346.984131 257.098511,347.060913 257.099609,347.126892 
	C239.438828,347.127472 221.776962,347.062042 203.670349,346.946350 
	C220.950928,316.133057 238.676254,285.370026 256.654449,254.409088 
z"/>
<path fill="#C7E9FE" opacity="1.000000" stroke="none" 
	d="
M257.460205,347.008881 
	C257.001617,316.571960 257.011780,286.159790 257.033203,255.261032 
	C264.782227,267.946289 272.577423,281.084778 280.243408,294.298248 
	C290.259644,311.562714 300.173584,328.886566 310.238953,346.531921 
	C292.873871,346.930511 275.401398,346.982056 257.460205,347.008881 
z"/>
</svg>